<svg xmlns="http://www.w3.org/2000/svg" width="160" height="160" fill="none"><g clip-path="url(#a)"><path fill="#DB92FE" d="M0 0h160v160H0z"/><path fill="#fff" d="M70.066 91.7c3.84-3.32 6.86-6.04 9.06-8.16 2.24-2.16 4.1-4.4 5.58-6.72 1.48-2.32 2.22-4.64 2.22-6.96 0-2.4-.58-4.28-1.74-5.64-1.12-1.36-2.9-2.04-5.34-2.04-2.36 0-4.2.76-5.52 2.28-1.28 1.48-1.96 3.48-2.04 6h-6.6c.12-4.56 1.48-8.04 4.08-10.44 2.64-2.44 5.98-3.66 10.02-3.66 4.36 0 7.76 1.2 10.2 3.6 2.48 2.4 3.72 5.6 3.72 9.6 0 2.88-.74 5.66-2.22 8.34a33.103 33.103 0 0 1-5.22 7.14c-2 2.08-4.56 4.5-7.68 7.26l-2.7 2.4h19.02v5.7h-29.16v-4.98l4.32-3.72z"/></g><defs><clipPath id="a"><path fill="#fff" d="M0 0h160v160H0z"/></clipPath></defs></svg>