<svg xmlns="http://www.w3.org/2000/svg" width="160" height="160" fill="none"><g clip-path="url(#a)"><path fill="#FE92D9" d="M0 0h160v160H0z"/><path fill="#fff" d="M65.668 68.06c.24-3.72 1.66-6.62 4.26-8.7 2.64-2.08 6-3.12 10.08-3.12 2.8 0 5.22.5 7.26 1.5s3.58 2.36 4.62 4.08c1.04 1.72 1.56 3.66 1.56 5.82 0 2.48-.66 4.6-1.98 6.36-1.32 1.76-2.9 2.94-4.74 3.54v.24c2.36.72 4.2 2.04 5.52 3.96 1.32 1.88 1.98 4.3 1.98 7.26 0 2.36-.54 4.46-1.62 6.3-1.08 1.84-2.68 3.3-4.8 4.38-2.12 1.04-4.66 1.56-7.62 1.56-4.32 0-7.88-1.1-10.68-3.3-2.76-2.24-4.24-5.44-4.44-9.6h6.6c.16 2.12.98 3.86 2.46 5.22 1.48 1.32 3.48 1.98 6 1.98 2.44 0 4.32-.66 5.64-1.98 1.32-1.36 1.98-3.1 1.98-5.22 0-2.8-.9-4.78-2.7-5.94-1.76-1.2-4.48-1.8-8.16-1.8h-1.56v-5.64h1.62c3.24-.04 5.7-.58 7.38-1.62 1.72-1.04 2.58-2.68 2.58-4.92 0-1.92-.62-3.44-1.86-4.56-1.24-1.16-3-1.74-5.28-1.74-2.24 0-3.98.58-5.22 1.74-1.24 1.12-1.98 2.52-2.22 4.2h-6.66z"/></g><defs><clipPath id="a"><path fill="#fff" d="M0 0h160v160H0z"/></clipPath></defs></svg>